<?xml version="1.0" standalone="no"?>
<!DOCTYPE svg PUBLIC "-//W3C//DTD SVG 20010904//EN"
 "http://www.w3.org/TR/2001/REC-SVG-20010904/DTD/svg10.dtd">
<svg version="1.0" xmlns="http://www.w3.org/2000/svg"
 width="1024.000000pt" height="1024.000000pt" viewBox="0 0 1024.000000 1024.000000"
 preserveAspectRatio="xMidYMid meet">

<g transform="translate(0.000000,1024.000000) scale(0.100000,-0.100000)"
fill="#000000" stroke="none">
<path d="M0 5120 l0 -5120 5120 0 5120 0 0 5120 0 5120 -5120 0 -5120 0 0
-5120z m6075 3734 c192 -23 502 -168 655 -307 279 -254 440 -566 464 -899 5
-66 3 -78 -10 -78 -20 0 -54 76 -54 123 0 41 -26 107 -41 107 -5 0 -7 -17 -4
-37 5 -32 -1 -25 -33 42 -61 126 -237 333 -377 444 -121 96 -334 201 -485 239
-49 12 -114 16 -260 16 -215 1 -308 -13 -495 -76 -96 -32 -305 -125 -420 -187
-38 -21 -137 -73 -220 -116 -82 -43 -204 -108 -270 -145 -66 -37 -163 -88
-215 -115 -52 -26 -124 -64 -160 -85 -187 -107 -529 -266 -620 -288 -69 -16
-281 -26 -312 -13 -33 12 -57 47 -65 94 -4 30 0 40 28 70 31 33 43 38 125 51
173 29 274 75 624 281 327 193 541 312 1010 563 420 226 633 307 835 319 50 3
92 8 95 10 5 5 116 -2 205 -13z m-1597 -146 c46 -14 68 -59 53 -110 -20 -64
-23 -65 -346 -67 -159 -1 -307 1 -328 5 -31 5 -41 13 -58 46 -18 34 -19 44 -8
69 27 66 27 66 356 67 176 0 311 -4 331 -10z m-1568 -190 c64 -20 151 -69 196
-110 25 -23 59 -70 79 -111 29 -57 35 -81 35 -131 0 -183 -121 -337 -280 -355
-51 -6 -66 -4 -97 13 -54 31 -86 82 -80 129 8 58 20 67 94 67 58 0 67 3 94 29
25 25 29 37 29 83 0 60 -12 79 -78 126 -65 46 -116 50 -192 16 -187 -84 -243
-316 -132 -544 27 -55 57 -95 117 -155 162 -162 370 -245 615 -247 292 -2 292
-2 1220 492 849 452 981 507 1291 540 371 39 784 -136 985 -416 47 -66 86
-143 78 -156 -3 -4 -23 1 -45 12 -47 25 -445 164 -544 192 -94 26 -339 36
-438 18 -269 -48 -535 -164 -1132 -492 -129 -70 -233 -126 -425 -226 -85 -44
-204 -106 -265 -137 -286 -149 -454 -204 -645 -212 -109 -4 -142 -2 -253 21
-229 47 -368 116 -523 258 -151 138 -210 216 -272 356 -48 108 -62 180 -62
320 0 266 75 440 235 546 127 85 272 112 395 74z m789 -179 c30 -33 35 -69 13
-98 -18 -25 -24 -26 -124 -29 l-106 -3 -26 31 c-28 34 -25 51 17 98 18 20 30
22 113 22 82 0 96 -3 113 -21z m268 -11 c31 -29 31 -81 1 -102 -36 -25 -57
-20 -74 19 -18 44 -18 47 7 79 25 32 36 32 66 4z m3742 -386 l28 -27 6 -505
c6 -545 5 -549 -46 -583 -39 -25 -61 -21 -96 18 l-31 36 0 257 c0 141 -3 375
-7 519 l-6 261 28 26 c38 36 87 35 124 -2z m-1524 -72 c38 -6 74 -15 78 -19 6
-6 -21 -18 -64 -31 -233 -67 -373 -151 -548 -329 -120 -123 -188 -216 -227
-311 -26 -64 -83 -279 -93 -350 l-6 -45 -14 33 c-24 58 -201 192 -285 216 -84
24 -214 39 -286 33 -112 -9 -210 -61 -334 -177 -27 -25 -51 -45 -55 -45 -3 0
-5 -4 -3 -8 1 -5 -3 -5 -9 -1 -8 5 -11 2 -7 -7 3 -8 2 -23 -3 -34 -6 -14 -7
-9 -5 18 2 20 0 37 -5 37 -21 0 -19 43 3 76 12 18 25 34 28 34 3 0 30 21 60
46 67 55 126 87 151 81 10 -3 17 0 16 7 -1 6 4 10 11 9 6 -2 12 1 12 7 0 5 17
18 38 29 20 11 31 20 23 21 -24 0 -217 -110 -278 -159 -48 -39 -66 -63 -106
-141 -26 -52 -50 -111 -53 -130 l-5 -35 23 43 c16 31 28 42 45 42 28 0 29 -16
3 -90 -11 -30 -19 -78 -20 -106 0 -67 33 -192 70 -267 17 -33 28 -63 25 -65
-3 -3 -5 -1 -5 5 0 29 -61 36 -278 30 l-217 -5 -59 -31 c-56 -29 -66 -31 -165
-31 -58 1 -126 5 -151 11 -25 6 -76 15 -114 20 -226 32 -463 114 -502 175 -9
14 -23 23 -30 20 -16 -6 -28 10 -14 19 5 3 20 0 32 -6 38 -21 238 -69 328 -79
101 -12 265 -12 411 -1 131 10 317 62 353 98 35 34 41 71 19 101 -35 47 -46
48 -130 20 -111 -38 -230 -52 -438 -52 -207 -1 -289 11 -423 61 -103 38 -125
35 -165 -19 -18 -24 -19 -32 -9 -65 6 -21 8 -41 3 -46 -4 -4 -38 15 -75 42
-73 55 -120 83 -135 79 -11 -4 -90 79 -92 95 -1 7 -1 16 0 20 1 5 -3 6 -8 3
-5 -3 -14 1 -21 9 -7 8 -11 15 -9 16 2 0 12 2 22 4 32 6 33 17 2 15 -44 -3
-52 -1 -33 11 19 11 18 12 -45 83 -20 23 -26 26 -21 11 9 -30 -38 52 -80 139
-34 70 -97 254 -96 280 1 6 12 -10 25 -35 13 -25 31 -52 41 -60 12 -10 10 -2
-7 26 -42 68 -79 161 -79 199 0 59 14 50 90 -54 124 -170 243 -282 420 -394
115 -74 190 -103 356 -142 103 -24 140 -28 279 -28 135 0 175 3 255 23 187 47
360 125 840 381 1001 533 1194 624 1400 655 159 24 250 28 345 15z m550 -174
c153 -52 242 -112 402 -268 111 -107 118 -127 128 -323 3 -71 8 -143 11 -158
3 -15 41 -77 84 -137 70 -96 260 -392 402 -625 45 -74 49 -84 43 -125 -10 -70
-44 -131 -86 -152 -46 -24 -133 -38 -229 -38 -94 0 -120 7 -120 31 0 29 -41
61 -68 54 -13 -3 -29 -2 -35 4 -18 14 -113 29 -130 20 -21 -12 -30 -72 -16
-121 14 -53 70 -109 126 -126 22 -7 72 -12 111 -12 l70 0 12 -37 c6 -21 21
-62 32 -90 l20 -53 -22 -54 c-12 -30 -29 -61 -38 -69 -14 -11 -72 -16 -277
-21 -253 -6 -261 -7 -297 -31 -48 -32 -57 -60 -27 -91 l22 -24 266 0 c146 0
276 -3 288 -6 13 -4 28 -21 37 -45 14 -36 14 -42 -4 -83 -24 -57 -51 -74 -143
-90 -40 -7 -81 -17 -90 -22 -26 -15 -67 -76 -59 -88 4 -6 7 -15 7 -21 0 -10 7
-10 87 1 l48 7 36 -74 c33 -68 35 -79 30 -141 -10 -137 -88 -242 -200 -269
-70 -17 -321 -5 -517 25 -191 29 -245 54 -360 166 -85 84 -112 140 -105 220 2
30 2 35 -3 15 -5 -24 -8 -26 -13 -13 -9 22 8 70 65 184 25 50 62 144 83 210
36 115 38 124 38 264 0 125 -4 160 -27 254 -46 185 -133 345 -267 496 -78 87
-161 215 -185 286 -22 67 -30 194 -16 284 29 190 198 425 364 504 144 69 328
83 490 38 127 -36 262 -132 375 -267 l42 -50 0 71 c0 75 -19 156 -45 189 -12
16 -14 17 -9 3 9 -26 1 -23 -57 27 -184 157 -431 225 -659 180 -170 -33 -232
-60 -340 -151 -100 -84 -161 -148 -202 -214 -110 -175 -126 -227 -138 -443 -9
-154 -19 -207 -38 -207 -4 0 -18 7 -31 17 l-24 16 8 -164 c9 -212 7 -417 -6
-499 -27 -174 -101 -323 -216 -437 -99 -99 -176 -157 -388 -292 -359 -229
-481 -325 -627 -492 -46 -53 -78 -74 -78 -50 0 16 41 61 51 56 5 -4 5 5 -1 19
-7 18 -6 26 1 26 6 0 9 9 6 20 -3 11 -2 20 2 20 9 0 71 85 71 97 0 10 -88 -84
-179 -192 -67 -80 -157 -219 -197 -305 -26 -57 -60 -191 -63 -250 -5 -84 -10
-127 -16 -142 -4 -10 -5 -25 -2 -33 4 -8 2 -17 -3 -20 -6 -4 -10 -13 -10 -21
0 -18 -24 -44 -39 -44 -6 0 -11 -4 -11 -10 0 -5 7 -10 15 -10 22 0 18 -28 -5
-35 -11 -3 -20 -13 -20 -20 0 -8 -15 -17 -35 -21 -25 -4 -35 -11 -35 -25 0
-11 7 -19 15 -19 38 0 43 -21 38 -145 -3 -86 -2 -116 6 -105 8 12 11 8 11 -20
0 -19 7 -43 14 -52 12 -17 14 -17 31 2 10 11 21 45 25 77 l7 58 2 -55 c1 -48
-3 -59 -30 -87 -38 -41 -69 -42 -102 -3 -46 54 -58 187 -36 390 5 52 12 147
14 210 4 126 32 302 71 450 29 113 122 310 196 417 126 183 271 296 563 438
94 45 190 98 215 117 25 18 85 58 133 88 97 60 258 217 322 313 80 121 138
345 161 622 18 227 37 354 81 530 64 263 105 341 272 518 79 83 136 126 237
176 170 83 294 112 474 107 115 -2 147 -7 215 -30z m-1745 -808 c107 -50 161
-102 210 -201 65 -132 71 -211 34 -397 -52 -252 -250 -439 -536 -506 -65 -15
-162 -17 -873 -21 -543 -2 -813 -7 -840 -14 -47 -13 -119 -69 -146 -113 -12
-19 -19 -50 -19 -78 0 -41 5 -54 36 -88 20 -22 63 -56 95 -76 33 -19 59 -37
59 -39 0 -64 -134 -89 -227 -41 -245 124 -221 536 39 667 120 60 95 59 998 59
904 0 875 -2 1008 60 79 37 168 125 207 203 70 145 7 329 -137 401 -90 45
-161 31 -233 -43 -35 -36 -40 -48 -40 -87 0 -39 5 -50 33 -75 40 -36 59 -37
74 -1 17 39 49 72 70 72 10 0 30 -7 44 -16 79 -52 69 -184 -20 -261 -44 -40
-72 -47 -141 -40 -81 8 -137 38 -183 96 -87 110 -104 234 -48 357 49 106 100
157 203 200 51 22 69 24 158 21 89 -3 108 -8 175 -39z m-2546 -94 c3 -8 2 -12
-4 -9 -6 3 -10 10 -10 16 0 14 7 11 14 -7z m18 -326 c10 -5 21 -21 24 -35 4
-15 4 -144 0 -287 -6 -219 -9 -263 -23 -278 -21 -23 -68 -23 -92 1 -17 17 -19
43 -26 275 -8 266 -5 324 17 338 14 8 73 1 100 -14z m3333 -164 c29 -59 25
-78 -12 -63 -20 7 -23 16 -23 64 0 30 2 55 4 55 2 0 16 -25 31 -56z m-2775
-60 c0 -2 -9 0 -20 6 -11 6 -20 13 -20 16 0 2 9 0 20 -6 11 -6 20 -13 20 -16z
m553 -51 c-62 -2 -165 -2 -230 0 -65 1 -14 3 112 3 127 0 180 -2 118 -3z m285
0 c-21 -2 -57 -2 -80 0 -24 2 -7 4 37 4 44 0 63 -2 43 -4z m1937 -140 c17 -54
40 -113 50 -132 74 -143 75 -378 1 -545 -37 -83 -127 -216 -200 -294 -63 -68
-252 -214 -439 -339 -59 -40 -132 -91 -162 -113 -30 -22 -56 -39 -57 -38 -3 2
-120 -109 -214 -203 -31 -30 -44 -38 -50 -28 -4 7 -3 14 4 17 7 2 12 10 12 18
0 7 6 11 14 8 12 -5 13 1 4 35 -7 27 -16 41 -27 41 -19 0 -112 -103 -164 -182
-55 -84 -81 -140 -122 -268 -37 -114 -38 -117 -36 -266 1 -83 -3 -162 -8 -175
-5 -13 -10 -18 -10 -11 -1 17 -28 15 -35 -3 -3 -10 -19 -15 -42 -15 -31 0 -36
3 -31 20 4 16 0 20 -19 20 -17 0 -24 6 -24 20 0 17 -7 20 -40 20 -35 0 -40 3
-40 23 0 12 -4 27 -8 34 -9 15 3 197 19 273 17 86 68 239 101 305 123 243 402
517 743 729 345 215 493 335 583 475 93 142 145 332 143 521 0 90 7 165 16
156 3 -3 20 -50 38 -103z m229 -25 c58 -61 136 -217 161 -324 25 -104 17 -314
-15 -406 -12 -38 -27 -68 -31 -68 -5 0 -9 -8 -9 -18 0 -29 -65 -153 -116 -222
-110 -148 -275 -301 -484 -449 -63 -45 -158 -112 -210 -149 -175 -123 -345
-305 -410 -441 -17 -34 -44 -110 -61 -169 -26 -91 -31 -130 -36 -260 l-6 -152
-34 -30 c-44 -39 -71 -38 -113 5 -43 44 -51 102 -39 262 17 221 71 391 171
544 109 165 201 253 458 435 319 227 363 259 427 312 77 65 171 172 230 265
100 154 138 284 137 467 -1 116 -11 170 -59 345 -13 50 -24 93 -25 98 0 16 17
4 64 -45z m-1366 -491 c6 -5 19 -22 28 -40 15 -29 15 -33 -1 -63 -9 -17 -35
-42 -58 -55 l-42 -24 -553 -1 c-534 -1 -553 -1 -578 18 -89 70 -53 158 69 168
103 8 1121 5 1135 -3z m-721 -399 c12 -11 27 -34 34 -50 12 -29 11 -33 -18
-58 l-30 -27 -340 -8 c-379 -8 -388 -6 -413 56 -17 41 0 76 50 101 32 16 63
17 365 12 309 -6 331 -8 352 -26z m-273 -398 c20 -22 36 -47 36 -56 0 -8 -13
-29 -29 -45 -29 -29 -30 -29 -149 -29 l-120 0 -26 31 c-14 17 -26 41 -26 54 0
13 12 37 26 54 l26 31 113 0 113 0 36 -40z m2385 -41 c10 -16 24 -57 31 -90
11 -53 11 -64 -5 -99 -17 -38 -17 -39 6 -69 15 -19 31 -29 42 -27 10 3 17 -2
17 -11 0 -8 -4 -12 -9 -9 -5 3 -11 -1 -14 -9 -4 -8 -25 -27 -48 -42 -23 -15
-59 -45 -80 -65 -21 -21 -43 -38 -48 -38 -5 0 -12 -6 -14 -12 -3 -8 -6 -5 -6
5 -1 10 -5 16 -10 13 -5 -4 -11 -1 -13 6 -6 18 -96 -19 -103 -43 -4 -10 -10
-19 -15 -19 -5 0 -15 -12 -22 -27 -9 -18 -21 -27 -33 -26 -11 1 -15 0 -8 -3 7
-3 4 -18 -13 -47 -16 -30 -20 -47 -14 -57 9 -13 10 -13 10 0 1 10 5 7 13 -8 7
-12 15 -21 18 -18 10 10 27 -22 18 -35 -7 -11 -9 -10 -9 6 -1 19 -1 19 -11 2
-6 -10 -8 -25 -5 -33 3 -8 1 -14 -5 -14 -6 0 -7 -4 -4 -10 3 -5 -8 -53 -24
-107 -17 -54 -35 -141 -41 -193 -6 -52 -13 -111 -15 -130 -2 -19 -4 -40 -5
-45 0 -19 -86 -36 -164 -33 l-76 3 5 180 c3 99 7 205 10 235 2 30 1 60 -3 66
-14 21 -71 44 -112 44 -33 0 -42 -4 -49 -22 -18 -49 -21 -131 -12 -328 9 -180
8 -206 -5 -221 -18 -20 -40 -15 -67 13 -10 10 -30 18 -46 18 -32 0 -80 35 -59
43 7 3 3 6 -9 6 -13 1 -23 7 -23 15 0 8 -6 16 -14 19 -10 4 -16 -3 -19 -21 -2
-15 -4 -4 -5 23 0 36 2 45 8 30 6 -13 7 2 3 40 -4 45 2 86 21 163 32 130 52
174 120 270 68 96 95 122 281 263 82 62 171 132 197 155 26 24 99 81 163 129
63 48 143 111 178 141 34 30 65 54 70 54 4 0 16 -14 26 -31z m-1779 -161 c0
-4 -4 -8 -8 -8 -5 0 -15 -11 -22 -25 -18 -33 -23 -26 -8 11 10 27 38 43 38 22z
m-709 -209 c41 -44 40 -90 -5 -135 l-34 -34 -189 0 -189 0 -27 28 c-41 42 -37
85 12 133 l39 39 182 0 182 0 29 -31z m3079 -49 c12 -8 12 -10 0 -14 -101 -36
-144 -56 -222 -108 -126 -83 -171 -122 -232 -203 -69 -92 -90 -129 -115 -195
-35 -94 -51 -181 -51 -281 l0 -97 -40 -36 c-54 -48 -87 -48 -130 1 l-33 37 6
140 c6 152 19 213 76 348 43 101 99 187 175 266 63 67 157 137 191 144 42 8
362 6 375 -2z m-2610 -200 c-5 -19 -19 -80 -31 -135 -11 -55 -24 -104 -29
-109 -5 -5 -5 9 0 30 6 23 5 43 -1 50 -6 8 -5 13 5 17 9 4 12 14 9 26 -3 12
-1 21 5 21 5 0 9 19 8 43 -1 30 3 41 12 39 8 -1 11 2 7 7 -5 9 15 54 22 47 1
-1 -2 -18 -7 -36z m1800 36 c0 -3 -4 -8 -10 -11 -5 -3 -10 -1 -10 4 0 6 5 11
10 11 6 0 10 -2 10 -4z m-63 -98 c-3 -8 -6 -5 -6 6 -1 11 2 17 5 13 3 -3 4
-12 1 -19z m811 -92 c30 -16 75 -61 89 -91 20 -39 23 -93 14 -203 -10 -105
-26 -162 -52 -178 -6 -3 -4 5 5 19 9 13 16 29 14 33 -1 5 1 19 6 32 10 31 -15
55 -49 46 -14 -3 -25 -10 -25 -15 0 -5 -15 -9 -33 -9 -23 0 -40 8 -56 26 -15
17 -28 23 -39 19 -13 -5 -14 -3 -6 5 9 9 17 9 32 1 12 -6 23 -7 26 -2 3 5 -6
12 -22 16 -15 4 -27 5 -27 3 0 -2 -11 7 -24 19 -26 24 -51 19 -69 -13 -16 -28
-25 3 -25 85 0 87 14 124 65 166 63 53 125 68 176 41z m523 -75 c33 -33 36
-56 13 -89 -12 -18 -25 -22 -66 -22 -100 0 -135 84 -53 128 36 20 75 14 106
-17z m-686 -387 c9 -15 12 -23 6 -20 -11 7 -35 46 -28 46 3 0 12 -12 22 -26z
m118 -51 c-13 -2 -35 -2 -50 0 -16 2 -5 4 22 4 28 0 40 -2 28 -4z m47 3 c0 -3
-4 -8 -10 -11 -5 -3 -10 -1 -10 4 0 6 5 11 10 11 6 0 10 -2 10 -4z m-1400 -81
c-7 -8 -17 -12 -23 -8 -6 4 -3 9 9 14 27 11 28 11 14 -6z m-83 -21 c-3 -3 -12
-4 -19 -1 -8 3 -5 6 6 6 11 1 17 -2 13 -5z m40 0 c-3 -3 -12 -4 -19 -1 -8 3
-5 6 6 6 11 1 17 -2 13 -5z m-2561 -349 c108 -25 157 -88 152 -195 -4 -78 -29
-120 -91 -152 l-42 -21 38 -11 c22 -6 52 -24 68 -40 36 -36 64 -124 55 -175
-9 -55 -54 -113 -111 -141 -47 -24 -60 -25 -249 -28 -109 -2 -217 -1 -240 2
l-41 6 2 378 c1 207 2 381 2 385 2 13 394 7 457 -8z m2702 -12 c23 -33 86
-145 166 -295 l57 -108 36 68 c19 37 65 126 101 197 36 72 72 138 80 148 12
14 32 17 102 17 l87 0 7 -95 c3 -53 3 -226 0 -385 l-7 -290 -75 0 -75 0 4 143
c2 78 2 189 1 247 l-3 105 -30 -55 c-17 -30 -60 -109 -96 -175 -75 -137 -108
-185 -128 -185 -20 0 -87 101 -172 260 l-73 135 0 -121 c0 -66 -3 -176 -7
-242 l-6 -122 -73 0 -72 0 -4 383 c-2 210 -3 385 -1 388 1 4 38 7 82 8 76 2
80 1 99 -26z m1906 -23 c3 -19 6 -52 6 -73 l0 -38 -180 2 c-100 1 -183 0 -185
-2 -2 -3 -5 -44 -6 -92 l-2 -87 149 -6 c82 -3 153 -9 157 -14 5 -4 11 -36 14
-70 l6 -63 -165 8 -166 7 6 -135 5 -136 -34 -6 c-19 -3 -58 -5 -88 -3 -45 3
-57 7 -75 31 l-20 27 29 58 29 57 7 275 c4 151 8 280 8 287 1 8 66 11 250 10
l249 -2 6 -35z m-2356 14 c20 -6 22 -12 22 -75 l0 -69 80 0 80 0 0 -52 c0 -76
-6 -82 -87 -80 l-68 2 3 -147 c4 -173 7 -179 81 -176 54 2 61 -6 61 -79 0 -33
-4 -38 -43 -57 -75 -36 -136 -25 -200 37 -53 52 -60 89 -52 270 l7 152 -46 0
c-46 0 -46 0 -46 34 0 18 3 48 6 65 6 30 9 32 43 29 l36 -3 -3 78 -4 77 54 0
c29 0 63 -3 76 -6z m-1603 -167 c65 -33 128 -99 159 -167 66 -142 -1 -312
-151 -382 -156 -73 -338 -8 -414 149 -34 71 -38 183 -9 251 65 151 269 224
415 149z m641 -2 c103 -46 189 -168 188 -269 0 -88 -30 -153 -98 -222 -68 -67
-119 -88 -216 -88 -148 0 -281 135 -297 298 -5 55 -2 71 21 122 52 114 101
156 208 179 75 16 125 11 194 -20z m614 3 c75 -32 97 -46 84 -55 -8 -6 -60
-74 -70 -91 -1 -2 -19 7 -40 20 -32 19 -54 23 -116 23 -85 0 -104 -10 -94 -48
5 -21 17 -27 75 -42 92 -22 179 -64 230 -110 38 -35 41 -41 41 -90 0 -45 -5
-61 -33 -97 -61 -81 -177 -115 -289 -84 -75 21 -178 72 -178 89 1 14 66 87 79
87 5 0 34 -12 65 -26 76 -34 157 -37 188 -6 l22 22 -20 20 c-11 12 -60 31
-113 45 -51 14 -106 34 -121 45 -38 27 -79 77 -86 104 -13 53 37 160 89 188
77 41 195 44 287 6z m1925 3 c56 -25 122 -91 147 -149 24 -53 36 -166 20 -176
-6 -4 -107 -9 -224 -12 -128 -3 -214 -9 -217 -15 -5 -16 31 -50 74 -70 54 -25
124 -24 178 2 l44 21 51 -35 c29 -19 57 -38 64 -41 10 -5 10 -7 1 -12 -7 -3
-31 -19 -55 -35 -166 -113 -388 -61 -476 111 -94 185 -16 370 179 425 66 18
154 13 214 -14z m1138 -29 c21 -14 50 -46 65 -71 l27 -46 -1 -205 -1 -205 -47
-9 c-54 -11 -68 -2 -70 42 l-1 30 -33 -29 c-17 -16 -56 -35 -85 -44 -48 -14
-58 -14 -98 0 -54 19 -96 57 -120 110 -42 90 -13 156 89 207 60 30 66 31 157
25 l95 -5 0 30 c0 38 -48 85 -97 94 -22 4 -66 0 -115 -12 l-80 -18 -19 25
c-10 13 -19 29 -19 34 0 19 133 78 190 84 67 8 113 -2 163 -37z m517 0 c42
-24 66 -45 68 -58 3 -21 -47 -84 -66 -84 -5 0 -23 14 -40 30 -56 53 -145 38
-186 -30 -20 -35 -21 -138 -2 -184 17 -40 56 -72 106 -87 34 -10 43 -9 88 17
45 25 53 27 75 15 14 -7 31 -24 38 -37 10 -20 10 -27 -7 -45 -32 -36 -104 -63
-179 -67 -64 -3 -74 -1 -117 27 -56 36 -124 119 -138 169 -17 63 -13 178 9
220 27 52 77 96 141 126 80 37 130 34 210 -12z m464 12 c47 -26 81 -63 109
-119 16 -32 41 -174 32 -183 -2 -3 -88 -6 -189 -6 -102 -1 -188 -5 -192 -8
-14 -15 41 -89 81 -108 57 -27 85 -25 135 11 l43 31 48 -23 c91 -42 90 -48
-14 -102 -102 -52 -139 -57 -223 -32 -71 21 -126 73 -168 157 -29 56 -36 82
-36 127 0 109 87 237 181 266 73 23 140 19 193 -11z m-4174 -883 c0 -29 -1
-30 -57 -33 -55 -3 -58 -5 -61 -30 l-3 -27 55 6 c52 5 56 4 56 -15 0 -26 -28
-42 -74 -42 -36 0 -36 0 -36 -45 0 -43 -1 -45 -30 -45 l-30 0 0 123 c0 68 2
126 4 128 3 2 43 5 90 7 l86 2 0 -29z m288 -23 c11 -29 35 -86 53 -126 28 -62
31 -75 19 -82 -28 -18 -49 -11 -52 18 -3 23 -8 28 -37 30 -51 5 -81 -6 -91
-33 -7 -18 -17 -25 -35 -25 -14 0 -25 5 -25 10 0 6 20 58 45 116 25 57 45 108
45 112 0 14 23 32 41 32 10 0 23 -18 37 -52z m414 31 c10 -14 4 -172 -7 -200
-9 -23 -49 -39 -95 -39 -52 0 -69 26 -82 126 -13 97 -4 121 49 127 61 7 125 0
135 -14z m383 11 c4 -6 -5 -24 -19 -41 -14 -17 -26 -25 -26 -19 0 7 -17 10
-47 8 -37 -2 -49 -7 -51 -21 -3 -16 3 -18 54 -16 52 3 58 1 66 -21 5 -12 7
-25 4 -27 -2 -3 -29 -8 -60 -12 -61 -8 -72 -14 -61 -31 5 -8 28 -11 66 -8 l59
4 0 -33 0 -33 -95 0 -96 0 2 130 2 130 98 0 c56 0 101 -4 104 -10z m449 -107
c65 -148 64 -143 28 -143 -21 0 -31 6 -35 20 -4 17 -14 20 -66 20 -56 0 -62
-2 -71 -25 -11 -28 -37 -33 -46 -10 -7 16 61 165 97 216 11 16 26 29 33 29 7
0 34 -48 60 -107z m-336 65 c18 -18 14 -62 -9 -91 l-20 -27 26 -44 c21 -36 23
-45 11 -49 -11 -4 -30 13 -61 53 -39 51 -43 60 -26 60 31 0 51 28 51 71 0 40
7 48 28 27z"/>
<path d="M5813 8563 c9 -2 25 -2 35 0 9 3 1 5 -18 5 -19 0 -27 -2 -17 -5z"/>
<path d="M6241 8524 c17 -21 58 -41 93 -45 35 -5 47 16 14 25 -13 3 -45 13
-72 21 -43 13 -47 13 -35 -1z"/>
<path d="M5522 8508 c-40 -12 -70 -23 -68 -25 4 -5 157 34 164 42 10 9 -22 3
-96 -17z"/>
<path d="M4855 8220 c-3 -6 1 -7 9 -4 18 7 21 14 7 14 -6 0 -13 -4 -16 -10z"/>
<path d="M4804 8195 c-10 -8 -14 -15 -8 -15 6 0 17 7 24 15 16 19 9 19 -16 0z"/>
<path d="M5705 8033 c-94 -21 -145 -38 -238 -79 -59 -26 -105 -49 -103 -51 2
-2 35 10 72 27 80 37 238 90 268 90 12 0 28 5 36 10 13 9 13 10 0 9 -8 -1 -24
-3 -35 -6z"/>
<path d="M5270 7860 c-19 -11 -31 -19 -27 -20 11 0 67 29 67 35 0 7 -1 7 -40
-15z"/>
<path d="M4954 7705 c-18 -14 -18 -14 4 -8 12 3 22 9 22 14 0 12 -3 11 -26 -6z"/>
<path d="M4239 7320 c-13 -10 -19 -19 -13 -20 6 0 21 9 34 20 30 26 10 26 -21
0z"/>
<path d="M4070 7236 c-14 -7 -53 -26 -87 -42 -35 -15 -61 -29 -59 -31 5 -5
175 68 182 78 7 13 -7 11 -36 -5z"/>
<path d="M3740 7096 c-89 -32 -138 -55 -118 -56 9 0 37 9 63 20 26 11 55 20
66 20 10 0 19 5 19 10 0 6 9 10 19 10 11 0 23 5 26 10 9 14 -1 12 -75 -14z"/>
<path d="M2903 7075 c29 -26 52 -32 61 -16 8 13 -21 34 -39 28 -8 -4 -17 -2
-20 3 -4 6 -12 10 -18 10 -7 0 1 -12 16 -25z"/>
<path d="M2988 7053 c6 -2 18 -2 25 0 6 3 1 5 -13 5 -14 0 -19 -2 -12 -5z"/>
<path d="M3510 7010 c0 -5 7 -10 16 -10 8 0 12 5 9 10 -3 6 -10 10 -16 10 -5
0 -9 -4 -9 -10z"/>
<path d="M5965 7811 c-58 -17 -144 -56 -215 -100 -53 -32 -25 -25 34 8 50 29
76 40 206 86 76 27 61 31 -25 6z"/>
<path d="M5040 7117 c39 -39 160 -114 160 -98 0 12 -54 57 -89 75 -29 15 -79
31 -71 23z"/>
<path d="M2370 6933 c0 -4 5 -15 10 -23 8 -13 10 -13 10 2 0 9 -4 20 -10 23
-5 3 -10 3 -10 -2z"/>
<path d="M2600 6731 c0 -5 5 -13 10 -16 6 -3 10 -2 10 4 0 5 -4 13 -10 16 -5
3 -10 2 -10 -4z"/>
<path d="M6857 7005 c-4 -8 -15 -15 -25 -15 -27 0 -41 -21 -31 -45 4 -11 8
-41 8 -66 1 -37 -4 -50 -26 -72 -41 -39 -94 -57 -167 -57 -81 0 -121 15 -255
97 -57 35 -114 63 -128 63 -27 0 -73 -41 -73 -66 0 -9 29 -45 64 -79 49 -48
91 -76 172 -117 l107 -53 106 0 c86 1 117 5 163 23 128 51 188 131 188 251 0
52 -4 65 -33 103 -35 46 -61 58 -70 33z"/>
<path d="M5005 5270 c-3 -5 -1 -10 4 -10 6 0 11 5 11 10 0 6 -2 10 -4 10 -3 0
-8 -4 -11 -10z"/>
<path d="M4959 5233 c-13 -16 -12 -17 4 -4 9 7 17 15 17 17 0 8 -8 3 -21 -13z"/>
<path d="M4847 5168 c-31 -17 -55 -33 -53 -35 4 -5 116 56 116 63 0 6 -1 6
-63 -28z"/>
<path d="M4795 6340 c-3 -5 -1 -10 4 -10 6 0 11 5 11 10 0 6 -2 10 -4 10 -3 0
-8 -4 -11 -10z"/>
<path d="M5561 5150 c-30 -28 -110 -89 -178 -136 -68 -47 -122 -88 -120 -91 6
-5 75 33 94 53 8 7 19 14 24 14 6 0 7 5 3 12 -5 8 0 9 14 6 12 -4 20 -2 17 2
-6 9 34 36 48 32 4 -1 7 2 7 7 0 5 11 12 25 15 14 4 23 11 20 16 -3 6 -1 10 6
10 13 0 99 89 99 102 0 12 0 11 -59 -42z"/>
<path d="M5458 5023 c7 -3 16 -2 19 1 4 3 -2 6 -13 5 -11 0 -14 -3 -6 -6z"/>
<path d="M5115 4820 c-10 -11 -25 -20 -33 -20 -9 0 -12 -3 -9 -6 8 -9 77 24
77 36 0 16 -16 11 -35 -10z"/>
<path d="M5005 4745 c-33 -27 -30 -32 6 -12 13 7 25 18 27 25 3 16 2 15 -33
-13z"/>
<path d="M5642 3705 c0 -16 2 -22 5 -12 2 9 2 23 0 30 -3 6 -5 -1 -5 -18z"/>
<path d="M2270 2745 l0 -85 109 0 c60 0 121 4 135 10 67 25 71 110 6 142 -27
14 -60 18 -142 18 l-108 0 0 -85z"/>
<path d="M2270 2439 l0 -91 134 4 c126 3 136 5 160 27 52 49 21 127 -55 136
-19 2 -80 6 -136 9 l-103 5 0 -90z"/>
<path d="M3037 2656 c-54 -20 -65 -32 -83 -92 -16 -56 -9 -112 22 -159 18 -28
85 -65 118 -65 97 0 183 112 157 205 -28 101 -114 146 -214 111z"/>
<path d="M3700 2661 c-89 -29 -116 -70 -108 -166 8 -98 83 -164 171 -151 55 8
91 35 117 87 38 74 13 181 -49 214 -37 19 -99 26 -131 16z"/>
<path d="M6192 2663 c-28 -13 -82 -84 -82 -107 0 -6 330 -5 330 2 0 1 -9 21
-20 42 -37 72 -148 103 -228 63z"/>
<path d="M7375 2473 c-53 -7 -83 -24 -95 -54 -37 -88 123 -130 205 -53 27 25
34 74 13 92 -16 12 -83 21 -123 15z"/>
<path d="M8333 2658 c-35 -25 -79 -93 -65 -102 12 -7 259 -2 267 5 11 12 -22
75 -50 97 -38 30 -109 30 -152 0z"/>
<path d="M4581 1780 c-10 -30 -10 -30 25 -30 l35 0 -18 30 c-9 17 -20 30 -24
30 -4 0 -12 -13 -18 -30z"/>
<path d="M4933 1790 c9 -77 36 -100 71 -61 10 10 18 38 19 62 l2 44 -49 3 -49
3 6 -51z"/>
<path d="M5792 1790 c-17 -28 -16 -30 24 -30 35 0 36 1 22 22 -20 30 -31 32
-46 8z"/>
</g>
</svg>
